<svg viewBox="0 0 32 32" fill="none" xmlns="http://www.w3.org/2000/svg"><path d="M12.8 17.6H1.6C1.17565 17.6 0.768687 17.7686 0.468629 18.0686C0.168571 18.3687 0 18.7757 0 19.2V30.4C0 30.8243 0.168571 31.2313 0.468629 31.5314C0.768687 31.8314 1.17565 32 1.6 32H12.8C13.2243 32 13.6313 31.8314 13.9314 31.5314C14.2314 31.2313 14.4 30.8243 14.4 30.4V19.2C14.4 18.7757 14.2314 18.3687 13.9314 18.0686C13.6313 17.7686 13.2243 17.6 12.8 17.6ZM11.2 28.8H3.2V20.8H11.2V28.8ZM30.4 0H19.2C18.7757 0 18.3687 0.168571 18.0686 0.468629C17.7686 0.768687 17.6 1.17565 17.6 1.6V12.8C17.6 13.2243 17.7686 13.6313 18.0686 13.9314C18.3687 14.2314 18.7757 14.4 19.2 14.4H30.4C30.8243 14.4 31.2313 14.2314 31.5314 13.9314C31.8314 13.6313 32 13.2243 32 12.8V1.6C32 1.17565 31.8314 0.768687 31.5314 0.468629C31.2313 0.168571 30.8243 0 30.4 0ZM28.8 11.2H20.8V3.2H28.8V11.2ZM30.4 17.6H19.2C18.7757 17.6 18.3687 17.7686 18.0686 18.0686C17.7686 18.3687 17.6 18.7757 17.6 19.2V30.4C17.6 30.8243 17.7686 31.2313 18.0686 31.5314C18.3687 31.8314 18.7757 32 19.2 32H30.4C30.8243 32 31.2313 31.8314 31.5314 31.5314C31.8314 31.2313 32 30.8243 32 30.4V19.2C32 18.7757 31.8314 18.3687 31.5314 18.0686C31.2313 17.7686 30.8243 17.6 30.4 17.6ZM28.8 28.8H20.8V20.8H28.8V28.8ZM12.8 0H1.6C1.17565 0 0.768687 0.168571 0.468629 0.468629C0.168571 0.768687 0 1.17565 0 1.6V12.8C0 13.2243 0.168571 13.6313 0.468629 13.9314C0.768687 14.2314 1.17565 14.4 1.6 14.4H12.8C13.2243 14.4 13.6313 14.2314 13.9314 13.9314C14.2314 13.6313 14.4 13.2243 14.4 12.8V1.6C14.4 1.17565 14.2314 0.768687 13.9314 0.468629C13.6313 0.168571 13.2243 0 12.8 0ZM11.2 11.2H3.2V3.2H11.2V11.2Z" fill="white"></path></svg>

<svg viewBox="0 0 31 32" fill="none" xmlns="http://www.w3.org/2000/svg"><path fill-rule="evenodd" clip-rule="evenodd" d="M25.8723 11.2L27.3853 9.74545C31.1678 13.2364 31.1678 18.7636 27.3853 22.1091L25.8723 20.6545C28.5957 17.8909 28.5957 13.8182 25.8723 11.2ZM22.695 14.2545L24.208 12.8C26.0236 14.6909 26.0236 17.3091 24.208 19.0545L22.695 17.6C23.4515 16.5818 23.4515 15.2727 22.695 14.2545ZM3.026 0H18.156C19.8203 0 21.182 1.30909 21.182 2.90909V29.0909C21.182 30.6909 19.8203 32 18.156 32H3.026C1.3617 32 0 30.6909 0 29.0909V2.90909C0 1.30909 1.3617 0 3.026 0ZM3.026 27.6364H18.156V4.36364H3.026V27.6364ZM9.93305 11.7388C9.77004 11.7996 9.6211 11.8907 9.4948 12.0069L6.45357 14.8796C6.19645 15.1268 6.052 15.462 6.052 15.8116C6.052 16.1612 6.19645 16.4965 6.45357 16.7436C6.71069 16.9908 7.05942 17.1297 7.42305 17.1297C7.78667 17.1297 8.1354 16.9908 8.39252 16.7436L9.10967 15.9904V20.5738C9.10967 20.9125 9.24959 21.2372 9.49864 21.4766C9.7477 21.7161 10.0855 21.8506 10.4377 21.8506C10.7899 21.8506 11.1277 21.7161 11.3768 21.4766C11.6258 21.2372 11.7658 20.9125 11.7658 20.5738V15.9904L12.4829 16.7436C12.74 16.9908 13.0888 17.1297 13.4524 17.1297C13.816 17.1297 14.1647 16.9908 14.4219 16.7436C14.679 16.4965 14.8234 16.1612 14.8234 15.8116C14.8234 15.462 14.679 15.1268 14.4219 14.8796L11.3806 12.0069C11.2543 11.8907 11.1054 11.7996 10.9424 11.7388C10.7834 11.6713 10.6115 11.6364 10.4377 11.6364C10.2639 11.6364 10.092 11.6713 9.93305 11.7388Z" fill="#F9FBFC"></path></svg>

<svg viewBox="0 0 32 32" fill="none" xmlns="http://www.w3.org/2000/svg"><path d="M9.6 9.136L25.6 16L9.6 22.864V17.52L21.024 16L9.6 14.48V9.136ZM16 0C18.1012 0 20.1817 0.413852 22.1229 1.21793C24.0641 2.022 25.828 3.20055 27.3137 4.68629C28.7994 6.17203 29.978 7.93586 30.7821 9.87706C31.5861 11.8183 32 13.8989 32 16C32 20.2435 30.3143 24.3131 27.3137 27.3137C24.3131 30.3143 20.2435 32 16 32C13.8989 32 11.8183 31.5861 9.87706 30.7821C7.93586 29.978 6.17203 28.7994 4.68629 27.3137C1.68571 24.3131 0 20.2435 0 16C0 11.7565 1.68571 7.68687 4.68629 4.68629C7.68687 1.68571 11.7565 0 16 0ZM16 3.2C12.6052 3.2 9.3495 4.54857 6.94903 6.94903C4.54857 9.3495 3.2 12.6052 3.2 16C3.2 19.3948 4.54857 22.6505 6.94903 25.051C9.3495 27.4514 12.6052 28.8 16 28.8C19.3948 28.8 22.6505 27.4514 25.051 25.051C27.4514 22.6505 28.8 19.3948 28.8 16C28.8 12.6052 27.4514 9.3495 25.051 6.94903C22.6505 4.54857 19.3948 3.2 16 3.2Z" fill="#F9FBFC"></path></svg>

<svg viewBox="0 0 32 33" fill="none" xmlns="http://www.w3.org/2000/svg"><path fill-rule="evenodd" clip-rule="evenodd" d="M25.6 16.0064H30.4C30.8243 16.0064 31.2313 16.1749 31.5314 16.475C31.8314 16.775 32 17.182 32 17.6064V27.2064C32 28.4794 31.4943 29.7003 30.5941 30.6005C29.6939 31.5006 28.473 32.0063 27.2 32.0063H4.80001C3.52697 32.0063 2.30607 31.5006 1.4059 30.6005C0.505725 29.7003 1.26126e-05 28.4794 1.26126e-05 27.2064V1.60636C-0.00110669 1.32442 0.0722924 1.0472 0.212778 0.802753C0.353263 0.558308 0.555845 0.355326 0.800012 0.214359C1.04324 0.0739301 1.31915 0 1.60001 0C1.88087 0 2.15678 0.0739301 2.40001 0.214359L7.20001 2.96636L12 0.214359C12.2432 0.0739301 12.5191 0 12.8 0C13.0809 0 13.3568 0.0739301 13.6 0.214359L18.4 2.96636L23.2 0.214359C23.4432 0.0739301 23.7191 0 24 0C24.2809 0 24.5568 0.0739301 24.8 0.214359C25.0442 0.355326 25.2468 0.558308 25.3872 0.802753C25.5277 1.0472 25.6011 1.32442 25.6 1.60636V16.0064ZM3.66864 28.3377C3.9687 28.6378 4.37566 28.8063 4.80001 28.8063H22.688C22.5017 28.2933 22.4043 27.7522 22.4 27.2064V4.37436L19.2 6.19836C18.9531 6.32734 18.6786 6.3947 18.4 6.3947C18.1214 6.3947 17.8469 6.32734 17.6 6.19836L12.8 3.44636L8.00001 6.19836C7.75307 6.32734 7.47861 6.3947 7.20001 6.3947C6.92142 6.3947 6.64695 6.32734 6.40001 6.19836L3.20001 4.37436V27.2064C3.20001 27.6307 3.36858 28.0377 3.66864 28.3377ZM28.3314 28.3377C28.6314 28.0377 28.8 27.6307 28.8 27.2064V19.2064H25.6V27.2064C25.6 27.6307 25.7686 28.0377 26.0686 28.3377C26.3687 28.6378 26.7757 28.8063 27.2 28.8063C27.6243 28.8063 28.0313 28.6378 28.3314 28.3377ZM10.338 10.7782C10.1468 10.4435 9.75434 10.2795 9.38183 10.3784C9.00933 10.4773 8.75 10.8145 8.75 11.1999V13.7623H8C7.64792 13.7623 7.3625 14.0477 7.3625 14.3998C7.3625 14.7519 7.64792 15.0373 8 15.0373H8.75V18.5624H8C7.64792 18.5624 7.3625 18.8478 7.3625 19.1999C7.3625 19.552 7.64792 19.8374 8 19.8374H8.75V22.3999C8.75 22.8693 9.13056 23.2499 9.6 23.2499C10.0694 23.2499 10.45 22.8693 10.45 22.3999V19.8374L13.5567 19.8374L15.262 22.8216C15.4532 23.1563 15.8457 23.3203 16.2182 23.2214C16.5907 23.1225 16.85 22.7853 16.85 22.3999V19.8374H17.6C17.9521 19.8374 18.2375 19.552 18.2375 19.1999C18.2375 18.8478 17.9521 18.5624 17.6 18.5624H16.85V15.0373H17.6C17.9521 15.0373 18.2375 14.7519 18.2375 14.3998C18.2375 14.0477 17.9521 13.7623 17.6 13.7623H16.85V11.1999C16.85 10.7305 16.4694 10.3499 16 10.3499C15.5306 10.3499 15.15 10.7305 15.15 11.1999V13.7623L12.0432 13.7623L10.338 10.7782ZM15.15 18.5624V15.0373H12.7718L14.7861 18.5624H15.15ZM12.8282 18.5624L10.8138 15.0373H10.45V18.5624H12.8282Z" fill="white"></path></svg>

<svg viewBox="0 0 29 29" fill="none" xmlns="http://www.w3.org/2000/svg"><rect width="29" height="29" rx="6" fill="white"></rect><path d="M19.1319 16.3528V21.9111V16.3528ZM16.3528 19.1319H21.9111H16.3528ZM8.94167 12.6472H10.7944C11.2858 12.6472 11.7571 12.452 12.1046 12.1045C12.452 11.7571 12.6472 11.2858 12.6472 10.7944V8.94164C12.6472 8.45026 12.452 7.979 12.1046 7.63153C11.7571 7.28407 11.2858 7.08887 10.7944 7.08887H8.94167C8.45028 7.08887 7.97902 7.28407 7.63156 7.63153C7.28409 7.979 7.08889 8.45026 7.08889 8.94164V10.7944C7.08889 11.2858 7.28409 11.7571 7.63156 12.1045C7.97902 12.452 8.45028 12.6472 8.94167 12.6472ZM18.2056 12.6472H20.0583C20.5497 12.6472 21.021 12.452 21.3684 12.1045C21.7159 11.7571 21.9111 11.2858 21.9111 10.7944V8.94164C21.9111 8.45026 21.7159 7.979 21.3684 7.63153C21.021 7.28407 20.5497 7.08887 20.0583 7.08887H18.2056C17.7142 7.08887 17.2429 7.28407 16.8954 7.63153C16.548 7.979 16.3528 8.45026 16.3528 8.94164V10.7944C16.3528 11.2858 16.548 11.7571 16.8954 12.1045C17.2429 12.452 17.7142 12.6472 18.2056 12.6472ZM8.94167 21.9111H10.7944C11.2858 21.9111 11.7571 21.7159 12.1046 21.3684C12.452 21.021 12.6472 20.5497 12.6472 20.0583V18.2055C12.6472 17.7141 12.452 17.2429 12.1046 16.8954C11.7571 16.548 11.2858 16.3528 10.7944 16.3528H8.94167C8.45028 16.3528 7.97902 16.548 7.63156 16.8954C7.28409 17.2429 7.08889 17.7141 7.08889 18.2055V20.0583C7.08889 20.5497 7.28409 21.021 7.63156 21.3684C7.97902 21.7159 8.45028 21.9111 8.94167 21.9111Z" stroke="#00425F" stroke-width="2" stroke-linecap="round" stroke-linejoin="round"></path></svg>

<svg version="1.1" id="Capa_1" xmlns="http://www.w3.org/2000/svg" xmlns:xlink="http://www.w3.org/1999/xlink" x="0px" y="0px" viewBox="0 0 486.8 486.8" style="enable-background:new 0 0 486.8 486.8;" xml:space="preserve"><g><g><g><path d="M86.648,329.9c6.9,0,12.6-5.6,12.6-12.6v-36.9h131.6v36.9c0,6.9,5.6,12.6,12.6,12.6c6.9,0,12.6-5.6,12.6-12.6v-36.9 h131.6v36.9c0,6.9,5.6,12.6,12.6,12.6c6.9,0,12.6-5.6,12.6-12.6v-49.5c0-6.9-5.6-12.6-12.6-12.6h-143.9V215 c0-6.9-5.6-12.6-12.6-12.6c-6.9,0-12.6,5.6-12.6,12.6v40.2h-144.5c-6.9,0-12.6,5.6-12.6,12.6v49.5 C74.048,324.2,79.748,329.9,86.648,329.9z"></path></g><g><path d="M239.548,149.4c-14.6-20.4,1.1-21.4,3.8-21.4l0,0l0,0c2.7,0,18.5,1,3.8,21.4l7.3,33.2h73.4v-23.8c0-5-2.2-9.8-6.1-13 c-21.5-17.7-44.7-29.4-49.4-31.7c-0.5-0.3-0.9-0.8-0.9-1.4V79.1c4.2-2.8,7-7.6,7-13V31.3c0-17.3-14-31.3-31.3-31.3h-3.8h-3.7 c-17.3,0-31.3,14-31.3,31.3V66c0,5.4,2.8,10.2,7,13v33.5c0,0.6-0.3,1.1-0.9,1.4c-4.7,2.3-27.9,14-49.4,31.7 c-3.9,3.2-6.1,8-6.1,13v23.8h73.4L239.548,149.4z"></path></g><g><path d="M301.048,459.6c-15.8-13-32.9-21.7-36.4-23.4c-0.4-0.2-0.6-0.6-0.6-1v-24.7c3.1-2.1,5.2-5.6,5.2-9.6v-25.5 c0-12.7-10.3-23-23-23h-2.9h-2.8c-12.7,0-23,10.3-23,23V401c0,4,2,7.5,5.2,9.6v24.7c0,0.4-0.2,0.8-0.6,1 c-3.5,1.7-20.6,10.3-36.4,23.4c-2.9,2.4-4.5,5.9-4.5,9.6v17.5h54l5.3-24.4c-10.8-15,0.8-15.8,2.8-15.8l0,0l0,0 c2,0,13.6,0.7,2.8,15.8l5.3,24.4h54v-17.5C305.548,465.5,303.948,462,301.048,459.6z"></path></g><g><path d="M145.448,459.6c-15.8-13-32.9-21.7-36.4-23.4c-0.4-0.2-0.6-0.6-0.6-1v-24.7c3.1-2.1,5.2-5.6,5.2-9.6v-25.5 c0-12.7-10.3-23-23-23h-2.8h-2.8c-12.7,0-23,10.3-23,23V401c0,4,2,7.5,5.2,9.6v24.7c0,0.4-0.2,0.8-0.6,1 c-3.5,1.7-20.6,10.3-36.4,23.4c-2.9,2.4-4.5,5.9-4.5,9.6v17.5h54l5.3-24.4c-10.8-15,0.8-15.8,2.8-15.8l0,0l0,0 c2,0,13.6,0.7,2.8,15.8l5.3,24.4h54v-17.5C149.948,465.5,148.348,462,145.448,459.6z"></path></g><g><path d="M456.648,459.6c-15.8-13-32.9-21.7-36.4-23.4c-0.4-0.2-0.6-0.6-0.6-1v-24.7c3.1-2.1,5.1-5.6,5.1-9.6v-25.5 c0-12.7-10.3-23-23-23h-2.8h-2.8c-12.7,0-23,10.3-23,23V401c0,4,2,7.5,5.2,9.6v24.7c0,0.4-0.2,0.8-0.6,1 c-3.5,1.7-20.6,10.3-36.4,23.4c-2.9,2.4-4.5,5.9-4.5,9.6v17.5h54l5.3-24.4c-10.8-15,0.8-15.8,2.8-15.8l0,0l0,0 c2,0,13.6,0.7,2.8,15.8l5.3,24.4h54v-17.5C461.148,465.5,459.548,462,456.648,459.6z"></path></g></g></g><g></g><g></g><g></g><g></g><g></g><g></g><g></g><g></g><g></g><g></g><g></g><g></g><g></g><g></g><g></g></svg>

search
<svg xmlns="http://www.w3.org/2000/svg" xmlns:xlink="http://www.w3.org/1999/xlink" version="1.1" id="Capa_1" x="0px" y="0px" viewBox="0 0 410.23 410.23" style="enable-background:new 0 0 410.23 410.23;" xml:space="preserve"><g><path d="M401.625,364.092l-107.1-107.1c19.125-26.775,30.6-59.288,30.6-93.713c0-89.888-72.675-162.562-162.562-162.562 S0,73.392,0,163.279s72.675,162.562,162.562,162.562c34.425,0,66.938-11.475,93.713-30.6l107.1,107.1 c9.562,9.562,26.775,9.562,38.25,0l0,0C413.1,390.867,413.1,375.566,401.625,364.092z M162.562,287.592 c-68.85,0-124.312-55.463-124.312-124.312c0-68.85,55.462-124.312,124.312-124.312c68.85,0,124.312,55.462,124.312,124.312 C286.875,232.129,231.412,287.592,162.562,287.592z" fill="#4d4d4d"></path></g><g></g><g></g><g></g><g></g><g></g><g></g><g></g><g></g><g></g><g></g><g></g><g></g><g></g><g></g><g></g></svg>